<?xml version="1.0" encoding="UTF-8"?>
<svg width="256px" height="256px" viewBox="0 0 256 256" version="1.1" xmlns="http://www.w3.org/2000/svg">
    <g>
        <path d="M256,0 L256,256 L0,256 L0,0 L256,0 Z M245.44,10.56 L10.56,10.56 L10.56,245.44 L245.44,245.44 L245.44,10.56 Z M200.384,87.808 L200.384,168.192 L169.984,168.192 L169.984,157.632 C165.248,165.376 157.184,169.728 146.624,169.728 C126.272,169.728 110.848,153.024 110.848,128 C110.848,102.976 126.272,86.272 146.624,86.272 C157.184,86.272 165.248,90.624 169.984,98.368 L169.984,87.808 L200.384,87.808 Z M166.144,128 C166.144,114.816 158.336,106.496 147.264,106.496 C136.192,106.496 128.384,114.816 128.384,128 C128.384,141.184 136.192,149.504 147.264,149.504 C158.336,149.504 166.144,141.184 166.144,128 Z" fill="#2EAD33"></path>
    </g>
</svg>
