<?xml version="1.0" encoding="UTF-8"?>
<svg width="256px" height="256px" viewBox="0 0 256 256" version="1.1" xmlns="http://www.w3.org/2000/svg">
    <g fill="#DC524A">
        <path d="M128,16C65.6,16,16,65.6,16,128s49.6,112,112,112s112-49.6,112-112S190.4,16,128,16z M128,224c-52.9,0-96-43.1-96-96 s43.1-96,96-96s96,43.1,96,96S180.9,224,128,224z"/>
        <path d="M169.5,86.5L128,128l-41.5-41.5l-14.1,14.1L114,142.1l-41.5,41.5l14.1,14.1L128,156.2l41.5,41.5l14.1-14.1L142.1,142.1 l41.5-41.5L169.5,86.5z"/>
    </g>
</svg>
